<?xml version="1.0" encoding="UTF-8" standalone="no"?>
<svg
   viewBox="0 0 173.88001 173.96998"
   width="173.88"
   height="173.96999"
   version="1.1"
   id="svg18"
   sodipodi:docname="Wiogen-Logo.svg"
   inkscape:export-filename="favicon.svg"
   inkscape:export-xdpi="96"
   inkscape:export-ydpi="96"
   xmlns:inkscape="http://www.inkscape.org/namespaces/inkscape"
   xmlns:sodipodi="http://sodipodi.sourceforge.net/DTD/sodipodi-0.dtd"
   xmlns="http://www.w3.org/2000/svg"
   xmlns:svg="http://www.w3.org/2000/svg">
  <defs
     id="defs18" />
  <sodipodi:namedview
     id="namedview18"
     pagecolor="#505050"
     bordercolor="#eeeeee"
     borderopacity="1"
     inkscape:showpageshadow="0"
     inkscape:pageopacity="0"
     inkscape:pagecheckerboard="0"
     inkscape:deskcolor="#505050">
    <inkscape:page
       x="0"
       y="0"
       width="173.88"
       height="173.96999"
       id="page2"
       margin="0"
       bleed="0" />
  </sodipodi:namedview>
  <title
     id="title1">Wiogen_Logo-svg</title>
  <style
     id="style1">		.s0 { fill: #053a29 } 		.s1 { fill: #171717 } 		.s2 { fill: #51b848 } 		.s3 { fill: #198842 } 		.s4 { opacity: .5;fill: #050606 } 		.s5 { fill: #03563f } 	</style>
  <g
     id="g18"
     transform="translate(-317.96,-9.8650003)">
    <path
       class="s0"
       d="m 404.9,9.865 c -47.97,0 -86.94,38.97 -86.94,86.94 h 2.16 2.16 c 0,-43.38 35.28,-78.57 78.57,-78.57 43.38,0 78.57,35.28 78.57,78.57 0,43.38 -35.28,78.66 -78.57,78.66 -43.38,0 -78.57,-35.28 -78.57,-78.57 h -2.16 -2.16 c 0,47.97 38.97,86.94 86.94,86.94 47.97,0 86.94,-38.97 86.94,-86.94 0,-47.97 -38.97,-87.03 -86.94,-87.03 z"
       id="path8"
       style="stroke-width:0.9" />
    <path
       class="s2"
       d="m 404.9,114.985 c -10.08,0 -18.18,-8.1 -18.18,-18.18 0,-10.08 8.1,-18.18 18.18,-18.18 10.08,0 18.18,8.1 18.18,18.18 0,10.08 -8.1,18.18 -18.18,18.18 z"
       id="path9"
       style="stroke-width:0.9" />
    <path
       class="s3"
       d="m 398.33,67.105 c 10.53,0 19.8,5.85 24.84,14.67 -4.59,-6.57 -12.06,-10.89 -20.52,-10.89 -13.86,0 -25.2,11.61 -25.2,26.01 0,14.4 11.25,26.01 25.2,26.01 8.46,0 15.93,-4.32 20.52,-10.89 -5.04,8.73 -14.22,14.67 -24.84,14.67 -15.93,0 -28.8,-13.32 -28.8,-29.79 0,-16.47 12.96,-29.79 28.8,-29.79 z"
       id="path10"
       style="stroke-width:0.9" />
    <path
       class="s4"
       d="m 453.5,104.905 c -3.15,25.92 -24.66,46.08 -50.58,46.08 -6.39,0 -12.42,-1.17 -18,-3.42 l 1.8,-5.13 c 5.04,1.98 10.53,3.06 16.2,3.06 23.31,0 42.57,-18 45.36,-41.31 z"
       id="path11"
       style="stroke-width:0.9" />
    <path
       class="s5"
       d="m 448.01,90.685 -5.22,0.9 c -3.06,-19.89 -19.8,-35.1 -39.87,-35.1 -5.58,0 -10.89,1.17 -15.75,3.33 l -2.07,-5.04 c 5.49,-2.43 11.52,-3.69 17.82,-3.69 22.77,-0.09 41.58,17.1 45.09,39.6 z"
       id="path12"
       style="stroke-width:0.9" />
    <path
       class="s5"
       d="m 453.5,104.905 c -3.15,25.92 -24.66,46.08 -50.58,46.08 -6.39,0 -12.42,-1.17 -18,-3.42 l 1.8,-5.13 c 5.04,1.98 10.53,3.06 16.2,3.06 23.31,0 42.57,-18 45.36,-41.31 z"
       id="path13"
       style="stroke-width:0.9" />
    <g
       id="g15"
       transform="matrix(0.9,0,0,0.9,40.49,9.685)">
      <path
         class="s3"
         d="m 344.3,123.3 -3.1,1.1 -3.4,1.2 c -1.4,-3.5 -2.6,-7.1 -3.5,-10.9 -1.4,-5.7 -2.1,-11.7 -2.1,-17.8 0,-12.4 2.9,-24 8.1,-34.3 l 3.1,1.8 c -4.9,9.7 -7.6,20.7 -7.6,32.4 0,5.7 0.7,11.3 1.9,16.6 l 3.1,-1.1 c 0.9,3.9 2,7.5 3.5,11 z"
         id="path14" />
      <path
         fill-rule="evenodd"
         class="s3"
         d="m 336.4,128.7 -0.9,-2.1 c -1.5,-3.6 -2.7,-7.4 -3.6,-11.2 -1.4,-6 -2.1,-12.1 -2.1,-18.4 0,-12.3 2.9,-24.5 8.4,-35.3 l 1.2,-2.3 7.1,4.3 -1,2 c -4.9,9.8 -7.4,20.3 -7.4,31.4 0,4.5 0.4,9 1.3,13.4 l 3.1,-1.1 0.6,2.6 q 1.2,5.4 3.3,10.5 l 0.9,2.3 z m 0.7,-12.4 c 0.6,2.1 1.3,4.3 2,6.3 l 2,-0.7 c -0.8,-2.1 -1.4,-4.2 -2,-6.3 z"
         id="path15" />
    </g>
    <g
       id="g17"
       transform="matrix(0.9,0,0,0.9,40.49,9.685)">
      <path
         class="s3"
         d="m 444.3,154.4 c -11.3,8.4 -25.1,13.3 -40,13.3 -28.4,0 -52.7,-17.8 -63.1,-43.3 l 3.1,-1.1 c 9.9,24.1 33,41 60,41 14.1,0 27.1,-4.6 37.8,-12.4 z"
         id="path16" />
      <path
         class="s3"
         d="m 404.2,170.1 c -28.6,0 -54.2,-17.6 -65.3,-44.7 l -0.9,-2.3 7.6,-2.8 0.9,2.1 c 9.9,24 32.6,39.5 57.8,39.5 13.1,0 25.7,-4.1 36.3,-12 l 1.7,-1.3 5.4,6.1 -2.1,1.6 c -12,9 -26.4,13.8 -41.4,13.8 z"
         id="path17" />
    </g>
    <path
       class="s3"
       d="m 465.2,87.535 c 0.45,3.06 0.72,6.3 0.72,9.54 0,5.85 -0.72,11.43 -2.16,16.83 l -2.88,-0.9 c 1.35,-5.04 2.07,-10.35 2.07,-15.84 0,-3.15 -0.27,-6.3 -0.72,-9.36 -2.34,-15.48 -10.26,-28.98 -21.6,-38.25 l 2.25,-2.07 c -10.53,-8.73 -23.94,-13.95 -38.52,-13.95 -4.05,0 -8.1,0.45 -11.97,1.17 l 1.35,2.88 c -9.09,1.71 -17.37,5.58 -24.48,11.07 -4.95,3.87 -9.27,8.46 -12.87,13.68 l -2.61,-1.53 c 3.87,-5.76 8.64,-10.8 14.13,-14.94 l -1.35,-2.97 c 7.2,-5.31 15.48,-9.18 24.48,-11.07 4.23,-0.9 8.55,-1.35 13.05,-1.35 15.48,0 29.7,5.67 40.86,15.03 12.24,10.35 20.7,25.11 23.04,42.03 z"
       id="path18"
       style="stroke-width:0.9" />
  </g>
</svg>
