<svg xmlns="http://www.w3.org/2000/svg" viewBox="0 0 1021 194" width="1021" height="194"><title>Wiogen_Logo-svg</title><style>		.s0 { fill: #053a29 } 		.s1 { fill: #171717 } 		.s2 { fill: #51b848 } 		.s3 { fill: #198842 } 		.s4 { opacity: .5;fill: #050606 } 		.s5 { fill: #03563f } 	</style><g id="_x36__1_"><g><path class="s0" d="m220.1 15.5l-65.1 175.1-40.2-100.1-46.8 100.5-67.9-175.5h39l33.2 97.6 25.8-64.3-13.4-33.3h33.1l38 93.7 28.5-93.7z"></path><path class="s0" d="m249.3 14.3h33.3v168.9h-33.3z"></path><path class="s0" d="m677.7 166.2c-2 2.1-5.1 4.3-9.4 6.5-4.3 2.2-9.2 4.2-14.8 6.1q-8.4 2.7-17.1 4.5c-5.8 1.1-11.3 1.7-16.5 1.7-13.8 0-26.2-2-37.2-6.1-11-4.1-20.4-9.7-28.2-17-7.8-7.3-13.8-15.9-17.9-25.8-4.1-9.9-6.2-20.8-6.2-32.6 0-15.5 2.3-28.9 7-40.3 4.7-11.4 11-20.9 19-28.5 8-7.6 17.3-13.2 27.8-16.9 10.5-3.7 21.5-5.5 32.9-5.5 10.9 0 20.8 1.2 29.8 3.6 9 2.4 16.7 5.3 22.9 8.8l-10.8 31c-2.8-1.5-6.4-3.1-11-4.6-4.6-1.5-9.3-2.8-14-3.8q-7.1-1.5-12.6-1.5c-9.2 0-17.3 1.1-24.3 3.4-7 2.3-13 5.7-17.8 10.3-4.8 4.6-8.5 10.3-10.9 17.1-2.5 6.8-3.7 14.7-3.7 23.8 0 8 1.4 15.1 4.1 21.5 2.8 6.3 6.6 11.7 11.6 16.2 5 4.4 10.9 7.8 17.7 10.1 6.8 2.3 14.3 3.4 22.6 3.4 4.7 0 9.1-0.3 13.1-1 4-0.7 7.3-1.8 10.1-3.3v-20.3h-29.1v-32.1h62.9z"></path><path class="s0" d="m1020.5 14.3v175.8h-0.9l-118.1-106.7 0.6 99.8h-33.7v-175.5h1.4l117.9 108.4-0.7-101.8z"></path><path class="s1" d="m715.4 82.5h0.2v32.1h-0.2z"></path><g><path class="s0" d="m748.9 151.1v-104.7h81.9v-32.1h-115.2v168.9h118.4v-32.1z"></path><path class="s0" d="m767.3 82.5h54.1v32.1h-54.1z"></path></g></g><g><path class="s0" d="m404.9 0.2c-53.3 0-96.6 43.3-96.6 96.6h2.4 2.4c0-48.2 39.2-87.3 87.3-87.3 48.2 0 87.3 39.2 87.3 87.3 0 48.2-39.2 87.4-87.3 87.4-48.2 0-87.3-39.2-87.3-87.3h-2.4-2.4c0 53.3 43.3 96.6 96.6 96.6 53.3 0 96.6-43.3 96.6-96.6 0-53.3-43.3-96.7-96.6-96.7z"></path><path class="s2" d="m404.9 117c-11.2 0-20.2-9-20.2-20.2 0-11.2 9-20.2 20.2-20.2 11.2 0 20.2 9 20.2 20.2 0 11.2-9 20.2-20.2 20.2z"></path><path class="s3" d="m397.6 63.8c11.7 0 22 6.5 27.6 16.3-5.1-7.3-13.4-12.1-22.8-12.1-15.4 0-28 12.9-28 28.9 0 16 12.5 28.9 28 28.9 9.4 0 17.7-4.8 22.8-12.1-5.6 9.7-15.8 16.3-27.6 16.3-17.7 0-32-14.8-32-33.1 0-18.3 14.4-33.1 32-33.1z"></path><path class="s4" d="m458.9 105.8c-3.5 28.8-27.4 51.2-56.2 51.2-7.1 0-13.8-1.3-20-3.8l2-5.7c5.6 2.2 11.7 3.4 18 3.4 25.9 0 47.3-20 50.4-45.9z"></path><path class="s5" d="m452.8 90l-5.8 1c-3.4-22.1-22-39-44.3-39-6.2 0-12.1 1.3-17.5 3.7l-2.3-5.6c6.1-2.7 12.8-4.1 19.8-4.1 25.3-0.1 46.2 19 50.1 44z"></path><path class="s5" d="m458.9 105.8c-3.5 28.8-27.4 51.2-56.2 51.2-7.1 0-13.8-1.3-20-3.8l2-5.7c5.6 2.2 11.7 3.4 18 3.4 25.9 0 47.3-20 50.4-45.9z"></path><g><path class="s3" d="m344.3 123.3l-3.1 1.1-3.4 1.2c-1.4-3.5-2.6-7.1-3.5-10.9-1.4-5.7-2.1-11.7-2.1-17.8 0-12.4 2.9-24 8.1-34.3l3.1 1.8c-4.9 9.7-7.6 20.7-7.6 32.4 0 5.7 0.7 11.3 1.9 16.6l3.1-1.1c0.9 3.9 2 7.5 3.5 11z"></path><path fill-rule="evenodd" class="s3" d="m336.4 128.7l-0.9-2.1c-1.5-3.6-2.7-7.4-3.6-11.2-1.4-6-2.1-12.1-2.1-18.4 0-12.3 2.9-24.5 8.4-35.3l1.2-2.3 7.1 4.3-1 2c-4.9 9.8-7.4 20.3-7.4 31.4 0 4.5 0.4 9 1.3 13.4l3.1-1.1 0.6 2.6q1.2 5.4 3.3 10.5l0.9 2.3zm0.7-12.4c0.6 2.1 1.3 4.3 2 6.3l2-0.7c-0.8-2.1-1.4-4.2-2-6.3z"></path></g><g><path class="s3" d="m444.3 154.4c-11.3 8.4-25.1 13.3-40 13.3-28.4 0-52.7-17.8-63.1-43.3l3.1-1.1c9.9 24.1 33 41 60 41 14.1 0 27.1-4.6 37.8-12.4z"></path><path class="s3" d="m404.2 170.1c-28.6 0-54.2-17.6-65.3-44.7l-0.9-2.3 7.6-2.8 0.9 2.1c9.9 24 32.6 39.5 57.8 39.5 13.1 0 25.7-4.1 36.3-12l1.7-1.3 5.4 6.1-2.1 1.6c-12 9-26.4 13.8-41.4 13.8z"></path></g><path class="s3" d="m471.9 86.5c0.5 3.4 0.8 7 0.8 10.6 0 6.5-0.8 12.7-2.4 18.7l-3.2-1c1.5-5.6 2.3-11.5 2.3-17.6 0-3.5-0.3-7-0.8-10.4-2.6-17.2-11.4-32.2-24-42.5l2.5-2.3c-11.7-9.7-26.6-15.5-42.8-15.5-4.5 0-9 0.5-13.3 1.3l1.5 3.2c-10.1 1.9-19.3 6.2-27.2 12.3-5.5 4.3-10.3 9.4-14.3 15.2l-2.9-1.7c4.3-6.4 9.6-12 15.7-16.6l-1.5-3.3c8-5.9 17.2-10.2 27.2-12.3 4.7-1 9.5-1.5 14.5-1.5 17.2 0 33 6.3 45.4 16.7 13.6 11.5 23 27.9 25.6 46.7z"></path></g></g></svg>